<svg xmlns="http://www.w3.org/2000/svg" id="a2f018bb-a9b6-4f95-b053-9a02ed13b144" data-name="Layer 1" width="30" height="29.5" viewBox="0 0 30 29.5"><ellipse cx="13.5" cy="13" rx="13.5" ry="13" style="opacity:0.15"></ellipse><path d="M11.7562,15.1964l-1.4887,1.29L15.36,21.6927a1.0394,1.0394,0,0,0,.7227.307l.0217,0a1.0456,1.0456,0,0,0,.7142-.2778L29.7025,9.6267,28.2739,8.2781,16.1356,19.6736Z" transform="translate(0 -0.5)"></path><path d="M28.04,17A11.04,11.04,0,1,1,17,5.96c.0218,0,.0218-1.96,0-1.96A13,13,0,1,0,30,17,9.25,9.25,0,0,0,28.04,17Z" transform="translate(0 -0.5)"></path></svg>